<svg id="Layer_1" data-name="Layer 1" xmlns="http://www.w3.org/2000/svg" width="110" height="110" viewBox="0 0 110 110">
  <path d="M55.53365,42.24257l3.78242,7.664a.59514.59514,0,0,0,.44808.32555l8.45776,1.229a.5951.5951,0,0,1,.32981,1.01506l-6.12009,5.96562a.59509.59509,0,0,0-.17115.52674l1.44476,8.42359a.5951.5951,0,0,1-.86346.62734L55.27693,64.0424a.59515.59515,0,0,0-.55386,0l-7.56485,3.97708a.5951.5951,0,0,1-.86346-.62734l1.44476-8.42359a.59509.59509,0,0,0-.17115-.52674l-6.12009-5.96562a.5951.5951,0,0,1,.32981-1.01506l8.45776-1.229a.59514.59514,0,0,0,.44808-.32555l3.78242-7.664A.5951.5951,0,0,1,55.53365,42.24257Z" fill="#024b54"/>
</svg>
