<svg width="110" height="110" viewBox="0 0 110 110" fill="none" xmlns="http://www.w3.org/2000/svg">
<g clip-path="url(#clip0)">
<path d="M100.3 36.7999C96.3 36.7999 93.1 33.7999 92.7 29.8999H17.5C17.1 33.7999 13.8 36.7999 9.89999 36.7999H9.79999V72.0999H9.89999C14.1 72.0999 17.5 75.4999 17.5 79.6999H92.6C92.6 75.4999 96 72.0999 100.2 72.0999H100.3V36.7999ZM100.3 36.7999C100.4 36.7999 100.4 36.7999 100.3 36.7999Z" stroke="#024B54" stroke-width="3" stroke-miterlimit="10" stroke-linecap="round" stroke-linejoin="round"/>
<path d="M9.8 32.6C11.3464 32.6 12.6 31.3464 12.6 29.8C12.6 28.2536 11.3464 27 9.8 27C8.2536 27 7 28.2536 7 29.8C7 31.3464 8.2536 32.6 9.8 32.6Z" fill="#024B54"/>
<path d="M9.8 82.6C11.3464 82.6 12.6 81.3464 12.6 79.8C12.6 78.2536 11.3464 77 9.8 77C8.2536 77 7 78.2536 7 79.8C7 81.3464 8.2536 82.6 9.8 82.6Z" fill="#024B54"/>
<path d="M100.5 32.6C102.046 32.6 103.3 31.3464 103.3 29.8C103.3 28.2536 102.046 27 100.5 27C98.9536 27 97.7 28.2536 97.7 29.8C97.7 31.3464 98.9536 32.6 100.5 32.6Z" fill="#024B54"/>
<path d="M100.5 82.6C102.046 82.6 103.3 81.3464 103.3 79.8C103.3 78.2536 102.046 77 100.5 77C98.9536 77 97.7 78.2536 97.7 79.8C97.7 81.3464 98.9536 82.6 100.5 82.6Z" fill="#024B54"/>
<path d="M38.2 62.7001H35V50.7001L31.3 51.9001V49.4001L37.8 47.1001H38.1V62.7001H38.2Z" fill="#024B54"/>
<path d="M50.5 56.4001C49.7 57.2001 48.7 57.6001 47.7 57.6001C46.3 57.6001 45.2 57.1001 44.4 56.2001C43.6 55.3001 43.2 54.0001 43.2 52.4001C43.2 51.4001 43.4 50.4001 43.9 49.6001C44.3 48.7001 45 48.1001 45.8 47.6001C46.6 47.1001 47.5 46.9001 48.5 46.9001C49.5 46.9001 50.5 47.2001 51.3 47.7001C52.1 48.2001 52.7 49.0001 53.2 49.9001C53.6 50.9001 53.9 52.0001 53.9 53.2001V54.4001C53.9 57.0001 53.3 59.1001 52 60.6001C50.7 62.1001 48.9 62.9001 46.5 63.0001H45.7V60.4001H46.4C48.8 60.1001 50.3 58.8001 50.5 56.4001ZM48.4 55.2001C48.9 55.2001 49.3 55.1001 49.7 54.8001C50.1 54.5001 50.3 54.2001 50.5 53.9001V52.6001C50.5 51.5001 50.3 50.7001 49.9 50.1001C49.5 49.5001 49 49.2001 48.3 49.2001C47.7 49.2001 47.2 49.5001 46.8 50.1001C46.4 50.7001 46.2 51.4001 46.2 52.2001C46.2 53.1001 46.4 53.8001 46.8 54.3001C47.2 54.9001 47.7 55.2001 48.4 55.2001Z" fill="#024B54"/>
<path d="M66.1 51.2001C66.1 52.0001 65.9 52.6001 65.5 53.2001C65.1 53.8001 64.6 54.3 63.9 54.6C64.7 55 65.3 55.5 65.7 56.1C66.1 56.7001 66.4 57.5 66.4 58.4C66.4 59.8 65.9 60.9001 65 61.7001C64.1 62.5001 62.8 62.9001 61.1 62.9001C59.4 62.9001 58.2 62.5001 57.2 61.7001C56.2 60.9001 55.8 59.8 55.8 58.4C55.8 57.5 56 56.8 56.5 56.1C56.9 55.5 57.5 55 58.3 54.6C57.6 54.2 57.1 53.8001 56.7 53.2001C56.3 52.6001 56.1 51.9001 56.1 51.2001C56.1 49.9001 56.5 48.8 57.4 48C58.3 47.2 59.5 46.8 61 46.8C62.5 46.8 63.7 47.2 64.6 48C65.5 48.8 66.1 49.8001 66.1 51.2001ZM63.3 58.1C63.3 57.4001 63.1 56.9 62.7 56.5C62.3 56.1 61.8 55.9 61.1 55.9C60.4 55.9 59.9 56.1 59.5 56.5C59.1 56.9 58.9 57.5 58.9 58.1C58.9 58.8 59.1 59.3001 59.5 59.7001C59.9 60.1 60.4 60.3 61.1 60.3C61.8 60.3 62.3 60.1 62.7 59.7001C63.1 59.3001 63.3 58.8 63.3 58.1ZM63 51.3C63 50.7 62.8 50.2 62.5 49.8C62.2 49.4 61.7 49.2001 61.1 49.2001C60.5 49.2001 60.1 49.4001 59.7 49.7001C59.4 50.1001 59.2 50.6001 59.2 51.2001C59.2 51.8001 59.4 52.3001 59.7 52.7001C60 53.1001 60.5 53.3 61.1 53.3C61.7 53.3 62.1 53.1001 62.5 52.7001C62.9 52.3001 63 51.9 63 51.3Z" fill="#024B54"/>
<path d="M75.8 56.4001C75 57.2001 74 57.6001 73 57.6001C71.6 57.6001 70.5 57.1001 69.7 56.2001C68.9 55.3001 68.5 54.0001 68.5 52.4001C68.5 51.4001 68.7 50.4001 69.2 49.6001C69.6 48.7001 70.3 48.1001 71.1 47.6001C71.9 47.1001 72.8 46.9001 73.8 46.9001C74.8 46.9001 75.8 47.2001 76.6 47.7001C77.4 48.2001 78 49.0001 78.5 49.9001C78.9 50.9001 79.2 52.0001 79.2 53.2001V54.4001C79.2 57.0001 78.6 59.1001 77.3 60.6001C76 62.1001 74.2 62.9001 71.8 63.0001H71V60.4001H71.7C74.1 60.1001 75.6 58.8001 75.8 56.4001ZM73.7 55.2001C74.2 55.2001 74.6 55.1001 75 54.8001C75.4 54.5001 75.6 54.2001 75.8 53.9001V52.6001C75.8 51.5001 75.6 50.7001 75.2 50.1001C74.8 49.5001 74.3 49.2001 73.6 49.2001C73 49.2001 72.5 49.5001 72.1 50.1001C71.7 50.7001 71.5 51.4001 71.5 52.2001C71.5 53.1001 71.7 53.8001 72.1 54.3001C72.5 54.9001 73 55.2001 73.7 55.2001Z" fill="#024B54"/>
</g>
<defs>
<clipPath id="clip0">
<rect width="96.3" height="55.7" fill="white" transform="translate(7 27)"/>
</clipPath>
</defs>
</svg>
