<svg id="Layer_1" data-name="Layer 1" xmlns="http://www.w3.org/2000/svg" width="110" height="110" viewBox="0 0 110 110">
  <path d="M98.28723,81.04255H11.71277A6.96276,6.96276,0,0,0,4.75,74.07979V35.92021a6.96276,6.96276,0,0,0,6.96277-6.96276H98.28723A6.96276,6.96276,0,0,0,105.25,35.92021V74.07979A6.96276,6.96276,0,0,0,98.28723,81.04255Z" fill="none" stroke="#024b54" stroke-linecap="round" stroke-linejoin="round" stroke-width="3"/>
  <path d="M16.23877,75.04235A13.05307,13.05307,0,0,0,10.75,69.55309V40.44664a13.05307,13.05307,0,0,0,5.48877-5.48926h77.522A13.05421,13.05421,0,0,0,99.25,40.44664V69.55309a13.05421,13.05421,0,0,0-5.48926,5.48926Z" fill="none" stroke="#024b54" stroke-miterlimit="10" stroke-width="3"/>
  <g>
    <path d="M35.87451,46.81983V61.96534H32.36963v-12.333h-3.0293v-2.8125Z" fill="#024b54"/>
    <path d="M48.81348,48.49659a7.90394,7.90394,0,0,1,1.79541,5.57129,9.4081,9.4081,0,0,1-.96241,4.41406,6.54664,6.54664,0,0,1-2.71582,2.791,8.34048,8.34048,0,0,1-4.04589.95215,9.71961,9.71961,0,0,1-2.315-.27051,6.22887,6.22887,0,0,1-1.88232-.76855l1.29785-2.57422a4.905,4.905,0,0,0,2.83447.75683,4.09809,4.09809,0,0,0,3.05079-1.13574,4.75166,4.75166,0,0,0,1.21191-3.27734,5.09041,5.09041,0,0,1-3.76514,1.3623,5.90654,5.90654,0,0,1-2.63965-.584,4.61241,4.61241,0,0,1-1.88232-1.65528,4.457,4.457,0,0,1-.69238-2.47754A4.7197,4.7197,0,0,1,38.86035,48.94a4.9381,4.9381,0,0,1,2.06641-1.76367,6.75558,6.75558,0,0,1,2.91015-.61621A6.45324,6.45324,0,0,1,48.81348,48.49659ZM45.96826,53.062a2.21438,2.21438,0,0,0,.02149-3.25683,2.8066,2.8066,0,0,0-1.93653-.627,2.70319,2.70319,0,0,0-1.82812.60547,2.058,2.058,0,0,0-.70362,1.64453,2.08988,2.08988,0,0,0,.70362,1.65528,3.10711,3.10711,0,0,0,3.74316-.02149Z" fill="#024b54"/>
    <path d="M64.38086,55.47413a3.74691,3.74691,0,0,1,.59375,2.09863,3.93432,3.93432,0,0,1-.79883,2.45606,5.1163,5.1163,0,0,1-2.252,1.623,10.063,10.063,0,0,1-6.6958,0,5.032,5.032,0,0,1-2.22852-1.623A3.9691,3.9691,0,0,1,52.21,57.57276a3.74749,3.74749,0,0,1,.59473-2.09863,4.31839,4.31839,0,0,1,1.69873-1.4707,3.69776,3.69776,0,0,1-1.29834-1.30957,3.55635,3.55635,0,0,1-.4541-1.80664,3.69506,3.69506,0,0,1,.73535-2.293A4.69242,4.69242,0,0,1,55.542,47.09034a8.07606,8.07606,0,0,1,3.02832-.53027,8.22765,8.22765,0,0,1,3.0625.53027,4.68787,4.68787,0,0,1,2.06641,1.50391,3.69585,3.69585,0,0,1,.73633,2.293,3.557,3.557,0,0,1-.45508,1.80664,3.6507,3.6507,0,0,1-1.32031,1.30957A4.28786,4.28786,0,0,1,64.38086,55.47413ZM60.6582,59.05519a1.91114,1.91114,0,0,0,.76953-1.58985,1.88319,1.88319,0,0,0-.76953-1.58008,3.36627,3.36627,0,0,0-2.08789-.584,3.27861,3.27861,0,0,0-2.05469.584,1.89062,1.89062,0,0,0-.75732,1.58008,1.91136,1.91136,0,0,0,.75732,1.60059,3.27855,3.27855,0,0,0,2.05469.584A3.32451,3.32451,0,0,0,60.6582,59.05519Zm-3.78515-9.41211a1.687,1.687,0,0,0-.63867,1.3955,1.645,1.645,0,0,0,.627,1.36329,2.67635,2.67635,0,0,0,1.709.498,2.77415,2.77415,0,0,0,1.73242-.498,1.62559,1.62559,0,0,0,.64844-1.36329,1.6787,1.6787,0,0,0-.64844-1.3955,2.73432,2.73432,0,0,0-1.73242-.50782A2.64451,2.64451,0,0,0,56.87305,49.64308Z" fill="#024b54"/>
    <path d="M76.875,48.49659a7.90175,7.90175,0,0,1,1.7959,5.57129,9.40821,9.40821,0,0,1-.96289,4.41406,6.54449,6.54449,0,0,1-2.71485,2.791,8.34449,8.34449,0,0,1-4.04589.95215,9.72059,9.72059,0,0,1-2.31543-.27051,6.24244,6.24244,0,0,1-1.88282-.76855l1.29883-2.57422a4.90231,4.90231,0,0,0,2.834.75683,4.09732,4.09732,0,0,0,3.05078-1.13574,4.74938,4.74938,0,0,0,1.21191-3.27734,5.09076,5.09076,0,0,1-3.76465,1.3623,5.90359,5.90359,0,0,1-2.63965-.584,4.61378,4.61378,0,0,1-1.88281-1.65528,4.457,4.457,0,0,1-.69238-2.47754A4.71235,4.71235,0,0,1,66.92285,48.94a4.93539,4.93539,0,0,1,2.06543-1.76367,6.75871,6.75871,0,0,1,2.91016-.61621A6.45108,6.45108,0,0,1,76.875,48.49659ZM74.03027,53.062a2.21438,2.21438,0,0,0,.02149-3.25683,2.8066,2.8066,0,0,0-1.93653-.627,2.70407,2.70407,0,0,0-1.82812.60547,2.05919,2.05919,0,0,0-.70313,1.64453,2.09107,2.09107,0,0,0,.70313,1.65528,3.10712,3.10712,0,0,0,3.74316-.02149Z" fill="#024b54"/>
  </g>
  <circle cx="4.75" cy="28.25532" r="3.25" fill="#024b54"/>
  <circle cx="4.75" cy="81.04255" r="3.25" fill="#024b54"/>
  <circle cx="105.25" cy="28.25532" r="3.25" fill="#024b54"/>
  <circle cx="105.25" cy="81.04255" r="3.25" fill="#024b54"/>
</svg>
