<svg id="Layer_1" data-name="Layer 1" xmlns="http://www.w3.org/2000/svg" width="110" height="110" viewBox="0 0 110 110">
  <g>
    <path d="M20.81025,42.24257l3.78242,7.664a.59511.59511,0,0,0,.44808.32555l8.45776,1.229a.5951.5951,0,0,1,.32981,1.01506l-6.12009,5.96562a.59509.59509,0,0,0-.17115.52674l1.44475,8.42359a.5951.5951,0,0,1-.86346.62734L20.55352,64.0424a.59513.59513,0,0,0-.55385,0l-7.56485,3.97708a.5951.5951,0,0,1-.86346-.62734l1.44475-8.42359a.59508.59508,0,0,0-.17114-.52674l-6.1201-5.96562a.5951.5951,0,0,1,.32982-1.01506l8.45776-1.229a.59511.59511,0,0,0,.44807-.32555l3.78243-7.664A.5951.5951,0,0,1,20.81025,42.24257Z" fill="#024b54"/>
    <path d="M55.53365,42.24257l3.78242,7.664a.59514.59514,0,0,0,.44808.32555l8.45776,1.229a.5951.5951,0,0,1,.32981,1.01506l-6.12009,5.96562a.59509.59509,0,0,0-.17115.52674l1.44476,8.42359a.5951.5951,0,0,1-.86346.62734L55.27693,64.0424a.59515.59515,0,0,0-.55386,0l-7.56485,3.97708a.5951.5951,0,0,1-.86346-.62734l1.44476-8.42359a.59509.59509,0,0,0-.17115-.52674l-6.12009-5.96562a.5951.5951,0,0,1,.32981-1.01506l8.45776-1.229a.59514.59514,0,0,0,.44808-.32555l3.78242-7.664A.5951.5951,0,0,1,55.53365,42.24257Z" fill="#024b54"/>
    <path d="M90.25705,42.24257l3.78243,7.664a.59511.59511,0,0,0,.44807.32555l8.45776,1.229a.5951.5951,0,0,1,.32982,1.01506L97.155,58.44181a.59508.59508,0,0,0-.17114.52674l1.44475,8.42359a.5951.5951,0,0,1-.86346.62734L90.00033,64.0424a.59513.59513,0,0,0-.55385,0l-7.56485,3.97708a.5951.5951,0,0,1-.86346-.62734l1.44475-8.42359a.59509.59509,0,0,0-.17115-.52674l-6.12009-5.96562a.5951.5951,0,0,1,.32981-1.01506l8.45776-1.229a.59511.59511,0,0,0,.44808-.32555l3.78242-7.664A.5951.5951,0,0,1,90.25705,42.24257Z" fill="#024b54"/>
  </g>
</svg>
