<svg id="Layer_1" data-name="Layer 1" xmlns="http://www.w3.org/2000/svg" width="110" height="110" viewBox="0 0 110 110">
  <path d="M5,97.97984H105" fill="none" stroke="#024b54" stroke-linecap="round" stroke-linejoin="round" stroke-width="3"/>
  <rect x="8.8617" y="14.97872" width="92.2766" height="75.28376" stroke-width="3" stroke="#024b54" stroke-linecap="round" stroke-linejoin="round" fill="none"/>
  <rect x="13.70213" y="9.3617" width="25.78723" height="5.61702" fill="#024b54"/>
  <rect x="41.40426" y="6.55319" width="7.65957" height="8.42553" fill="#024b54"/>
  <path d="M24.82978,25.12765v11.837H16.70213v-11.837h8.12765m1.93617-3h-12a1.06383,1.06383,0,0,0-1.06382,1.06383V38.90079A1.06382,1.06382,0,0,0,14.766,39.96461h12a1.06383,1.06383,0,0,0,1.06383-1.06382V23.19148A1.06384,1.06384,0,0,0,26.766,22.12765Z" fill="#024b54"/>
  <path d="M47.12766,25.12765v11.837H39v-11.837h8.12767m1.93618-3h-12A1.06386,1.06386,0,0,0,36,23.19148V38.90079a1.06385,1.06385,0,0,0,1.06385,1.06382h12a1.06383,1.06383,0,0,0,1.06382-1.06382V23.19148a1.06384,1.06384,0,0,0-1.06382-1.06383Z" fill="#024b54"/>
  <path d="M69.42553,25.12765v11.837H61.29788v-11.837h8.12765m1.93617-3h-12a1.06383,1.06383,0,0,0-1.06382,1.06383V38.90079a1.06382,1.06382,0,0,0,1.06382,1.06382h12a1.06383,1.06383,0,0,0,1.06383-1.06382V23.19148a1.06384,1.06384,0,0,0-1.06383-1.06383Z" fill="#024b54"/>
  <path d="M91.7234,25.12765v11.837H83.59574v-11.837H91.7234m1.93617-3h-12a1.06384,1.06384,0,0,0-1.06383,1.06383V38.90079a1.06383,1.06383,0,0,0,1.06383,1.06382h12a1.06383,1.06383,0,0,0,1.06383-1.06382V23.19148a1.06384,1.06384,0,0,0-1.06383-1.06383Z" fill="#024b54"/>
  <path d="M24.82978,46.70213v11.837H16.70213v-11.837h8.12765m1.93617-3h-12A1.06382,1.06382,0,0,0,13.70213,44.766V60.47525A1.06384,1.06384,0,0,0,14.766,61.53909h12a1.06385,1.06385,0,0,0,1.06383-1.06384V44.766A1.06383,1.06383,0,0,0,26.766,43.70213Z" fill="#024b54"/>
  <path d="M47.12766,46.70213v11.837H39v-11.837h8.12767m1.93618-3h-12A1.06384,1.06384,0,0,0,36,44.766V60.47525a1.06386,1.06386,0,0,0,1.06385,1.06384h12a1.06385,1.06385,0,0,0,1.06382-1.06384V44.766a1.06383,1.06383,0,0,0-1.06382-1.06383Z" fill="#024b54"/>
  <path d="M69.42553,46.70213v11.837H61.29788v-11.837h8.12765m1.93617-3h-12A1.06382,1.06382,0,0,0,58.29788,44.766V60.47525a1.06384,1.06384,0,0,0,1.06382,1.06384h12a1.06385,1.06385,0,0,0,1.06383-1.06384V44.766a1.06383,1.06383,0,0,0-1.06383-1.06383Z" fill="#024b54"/>
  <path d="M91.7234,46.70213v11.837H83.59574v-11.837H91.7234m1.93617-3h-12A1.06383,1.06383,0,0,0,80.59574,44.766V60.47525a1.06385,1.06385,0,0,0,1.06383,1.06384h12a1.06385,1.06385,0,0,0,1.06383-1.06384V44.766a1.06383,1.06383,0,0,0-1.06383-1.06383Z" fill="#024b54"/>
  <path d="M24.82978,68.27661v11.837H16.70213v-11.837h8.12765m1.93617-3h-12a1.06381,1.06381,0,0,0-1.06382,1.06381V82.04971A1.06382,1.06382,0,0,0,14.766,83.11356h12a1.06383,1.06383,0,0,0,1.06383-1.06385V66.34042A1.06382,1.06382,0,0,0,26.766,65.27661Z" fill="#024b54"/>
  <path d="M47.12766,68.27661v11.837H39v-11.837h8.12767m1.93618-3h-12A1.06384,1.06384,0,0,0,36,66.34042V82.04971a1.06385,1.06385,0,0,0,1.06385,1.06385h12a1.06383,1.06383,0,0,0,1.06382-1.06385V66.34042a1.06383,1.06383,0,0,0-1.06382-1.06381Z" fill="#024b54"/>
  <g>
    <rect x="59.79754" y="66.77682" width="11.12793" height="21.98535" fill="#024b54"/>
    <path d="M69.42553,68.27661V87.26248H61.29788V68.27661h8.12765m1.7234-3H59.57447a1.27657,1.27657,0,0,0-1.27659,1.27658V88.9859a1.27659,1.27659,0,0,0,1.27659,1.27658H71.14893a1.2766,1.2766,0,0,0,1.2766-1.27658V66.55319a1.27658,1.27658,0,0,0-1.2766-1.27658Z" fill="#024b54"/>
  </g>
  <path d="M91.7234,68.27661v11.837H83.59574v-11.837H91.7234m1.93617-3h-12a1.06382,1.06382,0,0,0-1.06383,1.06381V82.04971a1.06383,1.06383,0,0,0,1.06383,1.06385h12a1.06383,1.06383,0,0,0,1.06383-1.06385V66.34042a1.06382,1.06382,0,0,0-1.06383-1.06381Z" fill="#024b54"/>
  <rect x="8.8617" y="90.26248" width="92.2766" height="3.4822" stroke-width="3" stroke="#024b54" stroke-linecap="round" stroke-linejoin="round" fill="#024b54"/>
</svg>
