<svg id="Layer_1" data-name="Layer 1" xmlns="http://www.w3.org/2000/svg" width="110" height="110" viewBox="0 0 110 110">
  <path d="M5,97.80963H105" fill="none" stroke="#024b54" stroke-linecap="round" stroke-linejoin="round" stroke-width="3"/>
  <rect x="8.8617" y="14.80851" width="92.2766" height="75.28376" stroke-width="3" stroke="#024b54" stroke-linecap="round" stroke-linejoin="round" fill="none"/>
  <rect x="13.70213" y="9.19149" width="25.78723" height="5.61702" fill="#024b54"/>
  <rect x="41.40426" y="6.38298" width="7.65957" height="8.42553" fill="#024b54"/>
  <g>
    <rect x="15.20215" y="23.45749" width="11.12744" height="14.83691" fill="#024b54"/>
    <path d="M24.82979,24.95744v11.837H16.70213v-11.837h8.12766m1.93617-3h-12a1.06384,1.06384,0,0,0-1.06383,1.06383v15.7093A1.06383,1.06383,0,0,0,14.766,39.7944h12a1.06383,1.06383,0,0,0,1.06383-1.06383V23.02127A1.06384,1.06384,0,0,0,26.766,21.95744Z" fill="#024b54"/>
  </g>
  <g>
    <rect x="37.5" y="23.45749" width="11.12744" height="14.83691" fill="#024b54"/>
    <path d="M47.12766,24.95744v11.837H39v-11.837h8.12766m1.93617-3h-12A1.06384,1.06384,0,0,0,36,23.02127v15.7093a1.06383,1.06383,0,0,0,1.06383,1.06383h12a1.06383,1.06383,0,0,0,1.06383-1.06383V23.02127a1.06384,1.06384,0,0,0-1.06383-1.06383Z" fill="#024b54"/>
  </g>
  <g>
    <rect x="59.79785" y="23.45749" width="11.12793" height="14.83691" fill="#024b54"/>
    <path d="M69.42553,24.95744v11.837H61.29787v-11.837h8.12766m1.93617-3h-12a1.06384,1.06384,0,0,0-1.06383,1.06383v15.7093A1.06383,1.06383,0,0,0,59.3617,39.7944h12a1.06383,1.06383,0,0,0,1.06383-1.06383V23.02127a1.06384,1.06384,0,0,0-1.06383-1.06383Z" fill="#024b54"/>
  </g>
  <g>
    <rect x="82.0957" y="23.45749" width="11.12793" height="14.83691" fill="#024b54"/>
    <path d="M91.7234,24.95744v11.837H83.59573v-11.837H91.7234m1.93618-3h-12a1.06386,1.06386,0,0,0-1.06385,1.06383v15.7093a1.06385,1.06385,0,0,0,1.06385,1.06383h12a1.06383,1.06383,0,0,0,1.06382-1.06383V23.02127a1.06384,1.06384,0,0,0-1.06382-1.06383Z" fill="#024b54"/>
  </g>
  <g>
    <rect x="15.20215" y="45.03171" width="11.12744" height="14.83691" fill="#024b54"/>
    <path d="M24.82979,46.53192v11.837H16.70213v-11.837h8.12766m1.93617-3h-12a1.06383,1.06383,0,0,0-1.06383,1.06383V60.305A1.06383,1.06383,0,0,0,14.766,61.36887h12A1.06383,1.06383,0,0,0,27.82979,60.305V44.59575A1.06383,1.06383,0,0,0,26.766,43.53192Z" fill="#024b54"/>
  </g>
  <g>
    <rect x="37.5" y="45.03171" width="11.12744" height="14.83691" fill="#024b54"/>
    <path d="M47.12766,46.53192v11.837H39v-11.837h8.12766m1.93617-3h-12A1.06383,1.06383,0,0,0,36,44.59575V60.305a1.06383,1.06383,0,0,0,1.06383,1.06385h12A1.06383,1.06383,0,0,0,50.12766,60.305V44.59575a1.06383,1.06383,0,0,0-1.06383-1.06383Z" fill="#024b54"/>
  </g>
  <g>
    <rect x="59.79785" y="45.03171" width="11.12793" height="14.83691" fill="#024b54"/>
    <path d="M69.42553,46.53192v11.837H61.29787v-11.837h8.12766m1.93617-3h-12a1.06383,1.06383,0,0,0-1.06383,1.06383V60.305a1.06383,1.06383,0,0,0,1.06383,1.06385h12A1.06383,1.06383,0,0,0,72.42553,60.305V44.59575a1.06383,1.06383,0,0,0-1.06383-1.06383Z" fill="#024b54"/>
  </g>
  <g>
    <rect x="82.0957" y="45.03171" width="11.12793" height="14.83691" fill="#024b54"/>
    <path d="M91.7234,46.53192v11.837H83.59573v-11.837H91.7234m1.93618-3h-12a1.06384,1.06384,0,0,0-1.06385,1.06383V60.305a1.06385,1.06385,0,0,0,1.06385,1.06385h12A1.06383,1.06383,0,0,0,94.7234,60.305V44.59575a1.06382,1.06382,0,0,0-1.06382-1.06383Z" fill="#024b54"/>
  </g>
  <g>
    <rect x="15.20215" y="66.60593" width="11.12744" height="14.83789" fill="#024b54"/>
    <path d="M24.82979,68.10638v11.837H16.70213v-11.837h8.12766m1.93617-3h-12a1.06383,1.06383,0,0,0-1.06383,1.06385V81.87952A1.06382,1.06382,0,0,0,14.766,82.94333h12a1.06382,1.06382,0,0,0,1.06383-1.06381V66.17023A1.06383,1.06383,0,0,0,26.766,65.10638Z" fill="#024b54"/>
  </g>
  <g>
    <rect x="37.5" y="66.60593" width="11.12744" height="14.83789" fill="#024b54"/>
    <path d="M47.12766,68.10638v11.837H39v-11.837h8.12766m1.93617-3h-12A1.06383,1.06383,0,0,0,36,66.17023V81.87952a1.06382,1.06382,0,0,0,1.06383,1.06381h12a1.06382,1.06382,0,0,0,1.06383-1.06381V66.17023a1.06383,1.06383,0,0,0-1.06383-1.06385Z" fill="#024b54"/>
  </g>
  <path d="M69.42552,68.10638v18.9859H61.29787V68.10638h8.12765m1.72341-3H59.57447a1.2766,1.2766,0,0,0-1.2766,1.27658V88.81567a1.2766,1.2766,0,0,0,1.2766,1.27661H71.14893a1.2766,1.2766,0,0,0,1.27659-1.27661V66.383a1.2766,1.2766,0,0,0-1.27659-1.27658Z" fill="#024b54"/>
  <g>
    <rect x="82.0957" y="66.60593" width="11.12793" height="14.83789" fill="#024b54"/>
    <path d="M91.7234,68.10638v11.837H83.59573v-11.837H91.7234m1.93618-3h-12a1.06385,1.06385,0,0,0-1.06385,1.06385V81.87952a1.06384,1.06384,0,0,0,1.06385,1.06381h12a1.06382,1.06382,0,0,0,1.06382-1.06381V66.17023a1.06383,1.06383,0,0,0-1.06382-1.06385Z" fill="#024b54"/>
  </g>
  <rect x="8.8617" y="90.09227" width="92.2766" height="3.4822" stroke-width="3" stroke="#024b54" stroke-linecap="round" stroke-linejoin="round" fill="#024b54"/>
</svg>
