<svg id="Layer_1" data-name="Layer 1" xmlns="http://www.w3.org/2000/svg" width="110" height="110" viewBox="0 0 110 110">
  <path d="M83.48519,81.1155H32.75949a1.28454,1.28454,0,0,1-1.28077-1.28077v-36.09L58.12234,23.234,84.766,43.74468v36.09A1.28454,1.28454,0,0,1,83.48519,81.1155Z" fill="none" stroke="#024b54" stroke-linecap="round" stroke-linejoin="round" stroke-width="3"/>
  <polyline points="23.309 43.509 58.122 16.709 92.936 43.509" fill="none" stroke="#024b54" stroke-linecap="round" stroke-linejoin="round" stroke-width="3"/>
  <ellipse cx="18.7337" cy="87.8991" rx="6.36398" ry="5.85655" fill="#024b54"/>
  <circle cx="91.56196" cy="87.8991" r="5.85655" fill="#024b54"/>
  <polyline points="91.562 87.899 18.734 87.899 18.734 41.829 7.66 31.638" fill="none" stroke="#024b54" stroke-linecap="round" stroke-linejoin="round" stroke-width="3"/>
  <polygon points="79.826 33.417 75.529 30.109 75.529 20.809 79.826 20.809 79.826 33.417" fill="none" stroke="#024b54" stroke-linecap="round" stroke-linejoin="round" stroke-width="3"/>
  <line x1="39.48936" y1="81.1155" x2="39.48936" y2="70.06202" fill="none" stroke="#024b54" stroke-linecap="round" stroke-linejoin="round" stroke-width="3"/>
  <line x1="39.48936" y1="62.72368" x2="39.48936" y2="61.207" fill="none" stroke="#024b54" stroke-linecap="round" stroke-linejoin="round" stroke-width="3"/>
  <rect x="47.64894" y="46.33511" width="20.94681" height="20.94681" stroke-width="3" stroke="#024b54" stroke-linecap="round" stroke-linejoin="round" fill="none"/>
  <line x1="58.12234" y1="46.33511" x2="58.12234" y2="67.28191" fill="none" stroke="#024b54" stroke-linecap="round" stroke-linejoin="round" stroke-width="3"/>
  <line x1="47.64894" y1="56.80851" x2="68.59574" y2="56.80851" fill="none" stroke="#024b54" stroke-linecap="round" stroke-linejoin="round" stroke-width="3"/>
</svg>
