<svg id="Layer_1" data-name="Layer 1" xmlns="http://www.w3.org/2000/svg" width="110" height="110" viewBox="0 0 110 110">
  <path d="M5,97.80963H105" fill="none" stroke="#024b54" stroke-linecap="round" stroke-linejoin="round" stroke-width="3"/>
  <path d="M88.65164,22.7234H21.34836a6.80951,6.80951,0,0,0-1.56563.16525L3.617,26.88232H106.383L90.21727,22.88865A6.80951,6.80951,0,0,0,88.65164,22.7234Z" fill="#024b54" stroke="#024b54" stroke-linecap="round" stroke-linejoin="round" stroke-width="3"/>
  <path d="M75.84135,15.24711H34.15865a1.67445,1.67445,0,0,0-.96964.29706L23.17716,22.7234H86.82284L76.811,15.54417A1.67445,1.67445,0,0,0,75.84135,15.24711Z" fill="#024b54" stroke="#024b54" stroke-linecap="round" stroke-linejoin="round" stroke-width="3"/>
  <rect x="8.19826" y="28.81364" width="93.60348" height="64.04179" stroke-width="3" stroke="#024b54" stroke-linecap="round" stroke-linejoin="round" fill="none"/>
  <rect x="15.33348" y="35.53826" width="7.84368" height="7.84368" stroke-width="3" stroke="#024b54" stroke-linecap="round" stroke-linejoin="round" fill="none"/>
  <rect x="29.63135" y="35.53826" width="7.84368" height="7.84368" stroke-width="3" stroke="#024b54" stroke-linecap="round" stroke-linejoin="round" fill="none"/>
  <rect x="43.92922" y="35.53826" width="7.84368" height="7.84368" stroke-width="3" stroke="#024b54" stroke-linecap="round" stroke-linejoin="round" fill="none"/>
  <rect x="58.2271" y="35.53826" width="7.84368" height="7.84368" stroke-width="3" stroke="#024b54" stroke-linecap="round" stroke-linejoin="round" fill="none"/>
  <rect x="72.52497" y="35.53826" width="7.84368" height="7.84368" stroke-width="3" stroke="#024b54" stroke-linecap="round" stroke-linejoin="round" fill="none"/>
  <rect x="86.82284" y="35.53826" width="7.84368" height="7.84368" stroke-width="3" stroke="#024b54" stroke-linecap="round" stroke-linejoin="round" fill="none"/>
  <rect x="15.33348" y="49.42548" width="7.84368" height="7.84368" stroke-width="3" stroke="#024b54" stroke-linecap="round" stroke-linejoin="round" fill="none"/>
  <rect x="29.63135" y="49.42548" width="7.84368" height="7.84368" stroke-width="3" stroke="#024b54" stroke-linecap="round" stroke-linejoin="round" fill="none"/>
  <rect x="43.92922" y="49.42548" width="7.84368" height="7.84368" stroke-width="3" stroke="#024b54" stroke-linecap="round" stroke-linejoin="round" fill="none"/>
  <rect x="58.2271" y="49.42548" width="7.84368" height="7.84368" stroke-width="3" stroke="#024b54" stroke-linecap="round" stroke-linejoin="round" fill="none"/>
  <rect x="72.52497" y="49.42548" width="7.84368" height="7.84368" stroke-width="3" stroke="#024b54" stroke-linecap="round" stroke-linejoin="round" fill="none"/>
  <rect x="86.82284" y="49.42548" width="7.84368" height="7.84368" stroke-width="3" stroke="#024b54" stroke-linecap="round" stroke-linejoin="round" fill="none"/>
  <rect x="15.33348" y="63.31269" width="7.84368" height="7.84368" stroke-width="3" stroke="#024b54" stroke-linecap="round" stroke-linejoin="round" fill="none"/>
  <rect x="29.63135" y="63.31269" width="7.84368" height="7.84368" stroke-width="3" stroke="#024b54" stroke-linecap="round" stroke-linejoin="round" fill="none"/>
  <rect x="43.92922" y="63.31269" width="7.84368" height="7.84368" stroke-width="3" stroke="#024b54" stroke-linecap="round" stroke-linejoin="round" fill="none"/>
  <rect x="58.2271" y="63.31269" width="7.84368" height="7.84368" stroke-width="3" stroke="#024b54" stroke-linecap="round" stroke-linejoin="round" fill="none"/>
  <rect x="72.52497" y="63.31269" width="7.84368" height="7.84368" stroke-width="3" stroke="#024b54" stroke-linecap="round" stroke-linejoin="round" fill="none"/>
  <rect x="86.82284" y="63.31269" width="7.84368" height="7.84368" stroke-width="3" stroke="#024b54" stroke-linecap="round" stroke-linejoin="round" fill="none"/>
  <rect x="15.33348" y="77.19991" width="7.84368" height="7.84368" stroke-width="3" stroke="#024b54" stroke-linecap="round" stroke-linejoin="round" fill="none"/>
  <rect x="29.63135" y="77.19991" width="7.84368" height="7.84368" stroke-width="3" stroke="#024b54" stroke-linecap="round" stroke-linejoin="round" fill="none"/>
  <rect x="43.92922" y="77.19991" width="7.84368" height="7.84368" stroke-width="3" stroke="#024b54" stroke-linecap="round" stroke-linejoin="round" fill="none"/>
  <rect x="58.2271" y="77.19991" width="7.84368" height="7.84368" stroke-width="3" stroke="#024b54" stroke-linecap="round" stroke-linejoin="round" fill="none"/>
  <rect x="72.52497" y="77.19991" width="7.84368" height="15.65553" stroke-width="3" stroke="#024b54" stroke-linecap="round" stroke-linejoin="round" fill="none"/>
  <rect x="86.82284" y="77.19991" width="7.84368" height="7.84368" stroke-width="3" stroke="#024b54" stroke-linecap="round" stroke-linejoin="round" fill="none"/>
</svg>
