<svg xmlns="http://www.w3.org/2000/svg" width="24.001" height="34" viewBox="0 0 24.001 34">
  <path id="Subtraction_3" data-name="Subtraction 3" d="M12304-2075h0l0-.007c-.316-.408-3.174-4.115-6-8.508a66.9,66.9,0,0,1-4.126-7.252A15.956,15.956,0,0,1,12292-2097a11.923,11.923,0,0,1,3.516-8.485A11.925,11.925,0,0,1,12304-2109a11.922,11.922,0,0,1,8.485,3.514A11.924,11.924,0,0,1,12316-2097a15.956,15.956,0,0,1-1.875,6.233,66.767,66.767,0,0,1-4.124,7.252c-2.822,4.4-5.678,8.1-5.994,8.508l0,.007Zm0-27a5.007,5.007,0,0,0-5,5,5.006,5.006,0,0,0,5,5,5.005,5.005,0,0,0,5-5A5.005,5.005,0,0,0,12304-2102Z" transform="translate(-12291.998 2108.999)" fill="#cfcfcd"/>
</svg>
