<svg width="110" height="110" viewBox="0 0 110 110" fill="none" xmlns="http://www.w3.org/2000/svg">
<g clip-path="url(#clip0)">
<path d="M5.5 98.7998H105.5" stroke="#024B54" stroke-width="3" stroke-miterlimit="10" stroke-linecap="round" stroke-linejoin="round"/>
<path d="M94.2 18.3999H15.3V91.3999H94.2V18.3999Z" stroke="#024B54" stroke-width="3" stroke-miterlimit="10" stroke-linecap="round" stroke-linejoin="round"/>
<path d="M31.8 26.5H22.3V39.6H31.8V26.5Z" stroke="#024B54" stroke-width="3" stroke-miterlimit="10" stroke-linecap="round" stroke-linejoin="round"/>
<path d="M50.1 26.5H40.6V39.6H50.1V26.5Z" stroke="#024B54" stroke-width="3" stroke-miterlimit="10" stroke-linecap="round" stroke-linejoin="round"/>
<path d="M68.4 26.5H58.9V39.6H68.4V26.5Z" stroke="#024B54" stroke-width="3" stroke-miterlimit="10" stroke-linecap="round" stroke-linejoin="round"/>
<path d="M86.7 26.5H77.2V39.6H86.7V26.5Z" stroke="#024B54" stroke-width="3" stroke-miterlimit="10" stroke-linecap="round" stroke-linejoin="round"/>
<path d="M31.8 46.6001H22.3V59.7001H31.8V46.6001Z" stroke="#024B54" stroke-width="3" stroke-miterlimit="10" stroke-linecap="round" stroke-linejoin="round"/>
<path d="M50.1 46.6001H40.6V59.7001H50.1V46.6001Z" stroke="#024B54" stroke-width="3" stroke-miterlimit="10" stroke-linecap="round" stroke-linejoin="round"/>
<path d="M68.4 46.6001H58.9V59.7001H68.4V46.6001Z" stroke="#024B54" stroke-width="3" stroke-miterlimit="10" stroke-linecap="round" stroke-linejoin="round"/>
<path d="M86.7 46.6001H77.2V59.7001H86.7V46.6001Z" stroke="#024B54" stroke-width="3" stroke-miterlimit="10" stroke-linecap="round" stroke-linejoin="round"/>
<path d="M31.8 66.7998H22.3V80.8998H31.8V66.7998Z" stroke="#024B54" stroke-width="3" stroke-miterlimit="10" stroke-linecap="round" stroke-linejoin="round"/>
<path d="M50.1 66.7998H40.6V91.1998H50.1V66.7998Z" stroke="#024B54" stroke-width="3" stroke-miterlimit="10" stroke-linecap="round" stroke-linejoin="round"/>
<path d="M68.4 66.7998H58.9V80.8998H68.4V66.7998Z" stroke="#024B54" stroke-width="3" stroke-miterlimit="10" stroke-linecap="round" stroke-linejoin="round"/>
<path d="M86.7 66.7998H77.2V80.8998H86.7V66.7998Z" stroke="#024B54" stroke-width="3" stroke-miterlimit="10" stroke-linecap="round" stroke-linejoin="round"/>
<path d="M94.2 13.5H15.3V18.4H94.2V13.5Z" stroke="#024B54" stroke-width="3" stroke-miterlimit="10" stroke-linecap="round" stroke-linejoin="round"/>
</g>
<defs>
<clipPath id="clip0">
<rect width="103" height="88.3" fill="white" transform="translate(4 12)"/>
</clipPath>
</defs>
</svg>
