<svg width="110" height="110" viewBox="0 0 110 110" fill="none" xmlns="http://www.w3.org/2000/svg">
<g clip-path="url(#clip0)">
<path d="M12.7 57.5999H23.3V43.5999C23.3 43.5999 37.2 40.6999 37.2 57.5999H50.1V14.8999" stroke="#024B54" stroke-width="3" stroke-miterlimit="10" stroke-linecap="round" stroke-linejoin="round"/>
<path d="M67.8 37.3H96.3" stroke="#024B54" stroke-width="3" stroke-miterlimit="10" stroke-linecap="round" stroke-linejoin="round"/>
<path d="M49.9 72.3999V91.7999" stroke="#024B54" stroke-width="3" stroke-miterlimit="10" stroke-linecap="round" stroke-linejoin="round"/>
<path d="M80.8 92.6H97.3L97.6 71.9H83.6C83.6 71.9 80.7 58 97.6 58L97.3 14.5H80.8" stroke="#024B54" stroke-width="3" stroke-miterlimit="10" stroke-linecap="round" stroke-linejoin="round"/>
<path d="M35.2 92.6001H67.3" stroke="#024B54" stroke-width="3" stroke-miterlimit="10" stroke-linecap="round" stroke-linejoin="round"/>
<path d="M11.5 41.8999V92.5999H22.2" stroke="#024B54" stroke-width="3" stroke-miterlimit="10" stroke-linecap="round" stroke-linejoin="round"/>
<path d="M22 14.5H11.5V28.4" stroke="#024B54" stroke-width="3" stroke-miterlimit="10" stroke-linecap="round" stroke-linejoin="round"/>
<path d="M66.9 14.5H36.4" stroke="#024B54" stroke-width="3" stroke-miterlimit="10" stroke-linecap="round" stroke-linejoin="round"/>
<path d="M31.6934 31H30V24.4727L27.9785 25.0996V23.7227L31.5117 22.457H31.6934V31Z" fill="#024B54"/>
<path d="M77.4277 31H71.5801V29.8398L74.3398 26.8984C74.7188 26.4844 74.998 26.123 75.1777 25.8145C75.3613 25.5059 75.4531 25.2129 75.4531 24.9355C75.4531 24.5566 75.3574 24.2598 75.166 24.0449C74.9746 23.8262 74.7012 23.7168 74.3457 23.7168C73.9629 23.7168 73.6602 23.8496 73.4375 24.1152C73.2188 24.377 73.1094 24.7227 73.1094 25.1523H71.4102C71.4102 24.6328 71.5332 24.1582 71.7793 23.7285C72.0293 23.2988 72.3809 22.9629 72.834 22.7207C73.2871 22.4746 73.8008 22.3516 74.375 22.3516C75.2539 22.3516 75.9355 22.5625 76.4199 22.9844C76.9082 23.4062 77.1523 24.002 77.1523 24.7715C77.1523 25.1934 77.043 25.623 76.8242 26.0605C76.6055 26.498 76.2305 27.0078 75.6992 27.5898L73.7598 29.6348H77.4277V31Z" fill="#024B54"/>
<path d="M29.3027 68.9844H30.2051C30.6348 68.9844 30.9531 68.877 31.1602 68.6621C31.3672 68.4473 31.4707 68.1621 31.4707 67.8066C31.4707 67.4629 31.3672 67.1953 31.1602 67.0039C30.957 66.8125 30.6758 66.7168 30.3164 66.7168C29.9922 66.7168 29.7207 66.8066 29.502 66.9863C29.2832 67.1621 29.1738 67.3926 29.1738 67.6777H27.4805C27.4805 67.2324 27.5996 66.834 27.8379 66.4824C28.0801 66.127 28.416 65.8496 28.8457 65.6504C29.2793 65.4512 29.7559 65.3516 30.2754 65.3516C31.1777 65.3516 31.8848 65.5684 32.3965 66.002C32.9082 66.4316 33.1641 67.0254 33.1641 67.7832C33.1641 68.1738 33.0449 68.5332 32.8066 68.8613C32.5684 69.1895 32.2559 69.4414 31.8691 69.6172C32.3496 69.7891 32.707 70.0469 32.9414 70.3906C33.1797 70.7344 33.2988 71.1406 33.2988 71.6094C33.2988 72.3672 33.0215 72.9746 32.4668 73.4316C31.916 73.8887 31.1855 74.1172 30.2754 74.1172C29.4238 74.1172 28.7266 73.8926 28.1836 73.4434C27.6445 72.9941 27.375 72.4004 27.375 71.6621H29.0684C29.0684 71.9824 29.1875 72.2441 29.4258 72.4473C29.668 72.6504 29.9648 72.752 30.3164 72.752C30.7188 72.752 31.0332 72.6465 31.2598 72.4355C31.4902 72.2207 31.6055 71.9375 31.6055 71.5859C31.6055 70.7344 31.1367 70.3086 30.1992 70.3086H29.3027V68.9844Z" fill="#024B54"/>
<path d="M76.5898 70.7891H77.5566V72.1543H76.5898V74H74.8965V72.1543H71.3984L71.3223 71.0879L74.8789 65.4688H76.5898V70.7891ZM73.0098 70.7891H74.8965V67.7773L74.7852 67.9707L73.0098 70.7891Z" fill="#024B54"/>
</g>
<defs>
<clipPath id="clip0">
<rect width="89.1" height="81.1" fill="white" transform="translate(10 13)"/>
</clipPath>
</defs>
</svg>
