<svg id="Layer_1" data-name="Layer 1" xmlns="http://www.w3.org/2000/svg" width="110" height="110" viewBox="0 0 110 110">
  <path d="M5,97.80963H105" fill="none" stroke="#024b54" stroke-linecap="round" stroke-linejoin="round" stroke-width="3"/>
  <polyline points="96.362 42.213 96.362 91.745 13.638 91.745 13.638 42.213" fill="none" stroke="#024b54" stroke-linecap="round" stroke-linejoin="round" stroke-width="3"/>
  <rect x="5" y="24.06741" width="100" height="13.61702" rx="1.01064" stroke-width="3" stroke="#024b54" stroke-linecap="round" stroke-linejoin="round" fill="none"/>
  <g>
    <line x1="12.12766" y1="27.72699" x2="12.12766" y2="34.02486" fill="none" stroke="#024b54" stroke-linecap="round" stroke-linejoin="round" stroke-width="3"/>
    <line x1="18.7234" y1="27.72699" x2="18.7234" y2="34.02486" fill="none" stroke="#024b54" stroke-linecap="round" stroke-linejoin="round" stroke-width="3"/>
    <line x1="25.31915" y1="27.72699" x2="25.31915" y2="34.02486" fill="none" stroke="#024b54" stroke-linecap="round" stroke-linejoin="round" stroke-width="3"/>
    <line x1="31.91489" y1="27.72699" x2="31.91489" y2="34.02486" fill="none" stroke="#024b54" stroke-linecap="round" stroke-linejoin="round" stroke-width="3"/>
    <line x1="38.51064" y1="27.72699" x2="38.51064" y2="34.02486" fill="none" stroke="#024b54" stroke-linecap="round" stroke-linejoin="round" stroke-width="3"/>
    <line x1="45.10638" y1="27.72699" x2="45.10638" y2="34.02486" fill="none" stroke="#024b54" stroke-linecap="round" stroke-linejoin="round" stroke-width="3"/>
    <line x1="51.70213" y1="27.72699" x2="51.70213" y2="34.02486" fill="none" stroke="#024b54" stroke-linecap="round" stroke-linejoin="round" stroke-width="3"/>
    <line x1="58.29787" y1="27.72699" x2="58.29787" y2="34.02486" fill="none" stroke="#024b54" stroke-linecap="round" stroke-linejoin="round" stroke-width="3"/>
    <line x1="64.89362" y1="27.72699" x2="64.89362" y2="34.02486" fill="none" stroke="#024b54" stroke-linecap="round" stroke-linejoin="round" stroke-width="3"/>
    <line x1="71.48936" y1="27.72699" x2="71.48936" y2="34.02486" fill="none" stroke="#024b54" stroke-linecap="round" stroke-linejoin="round" stroke-width="3"/>
    <line x1="78.08511" y1="27.72699" x2="78.08511" y2="34.02486" fill="none" stroke="#024b54" stroke-linecap="round" stroke-linejoin="round" stroke-width="3"/>
    <line x1="84.68085" y1="27.72699" x2="84.68085" y2="34.02486" fill="none" stroke="#024b54" stroke-linecap="round" stroke-linejoin="round" stroke-width="3"/>
    <line x1="91.2766" y1="27.72699" x2="91.2766" y2="34.02486" fill="none" stroke="#024b54" stroke-linecap="round" stroke-linejoin="round" stroke-width="3"/>
    <line x1="97.87234" y1="27.72699" x2="97.87234" y2="34.02486" fill="none" stroke="#024b54" stroke-linecap="round" stroke-linejoin="round" stroke-width="3"/>
  </g>
  <rect x="65.65957" y="45.78723" width="22" height="45.95745" stroke-width="3" stroke="#024b54" stroke-linecap="round" stroke-linejoin="round" fill="none"/>
  <rect x="82.04255" y="62.97872" width="2.7234" height="8.34043" fill="#024b54"/>
  <rect x="17.70213" y="45.78723" width="19.78723" height="29.10638" fill="#024b54"/>
  <rect x="40.85106" y="45.78723" width="19.78723" height="29.10638" fill="#024b54"/>
  <rect x="17.70213" y="76.35812" width="42.93617" height="1.96103" fill="#024b54"/>
</svg>
