<svg id="Layer_1" data-name="Layer 1" xmlns="http://www.w3.org/2000/svg" width="110" height="110" viewBox="0 0 110 110">
  <path d="M77.28129,41.7331V29.85737a1.28582,1.28582,0,0,0-.37756-.90956L62.99432,15.03839a1.28573,1.28573,0,0,0-.90956-.37756H21.6179A1.29092,1.29092,0,0,0,20.33079,15.948V90.2487a1.28544,1.28544,0,0,0,1.28711,1.28711H75.99418a1.28544,1.28544,0,0,0,1.28711-1.28711V76.71684a17.29034,17.29034,0,0,1-2.57423.71221V88.96159H22.905V17.23506H61.55276l13.1543,13.15431v10.623A16.33132,16.33132,0,0,1,77.28129,41.7331Z" fill="#024b54"/>
  <path d="M59.38517,13.25112H18.92011V82.59377a.92985.92985,0,0,1-.92985.92985H16.03753a1.15224,1.15224,0,0,1-1.15224-1.15223V10.583A1.35774,1.35774,0,0,1,16.243,9.2253H54.47815a2.14158,2.14158,0,0,1,1.50861.62739C57.2215,11.0874,58.32974,12.19569,59.38517,13.25112Z" fill="#024b54"/>
  <path d="M62.29247,24.31868H26.91074a1.28711,1.28711,0,1,1,0-2.57422H62.29247a1.28711,1.28711,0,0,1,0,2.57422Z" fill="#024b54"/>
  <path d="M71.03746,34.34157H26.91074a1.28711,1.28711,0,0,1,0-2.57422H71.03746a1.28711,1.28711,0,1,1,0,2.57422Z" fill="#024b54"/>
  <path d="M64.62468,41.79317a17.04424,17.04424,0,0,0-2.78021,1.28711,18.30542,18.30542,0,0,0-1.95638,1.28711H26.91079a1.28711,1.28711,0,0,1,0-2.57422Z" fill="#024b54"/>
  <path d="M53.99312,51.81548a19.039,19.039,0,0,0-.901,2.57423H26.91079a1.28712,1.28712,0,0,1,0-2.57423Z" fill="#024b54"/>
  <path d="M53.2037,64.412H26.91079a1.28712,1.28712,0,0,1,0-2.57423H52.64593A16.94057,16.94057,0,0,0,53.2037,64.412Z" fill="#024b54"/>
  <path d="M60.38579,74.43433h-33.475a1.28712,1.28712,0,0,1,0-2.57423h30.506A18.79828,18.79828,0,0,0,60.38579,74.43433Z" fill="#024b54"/>
  <path d="M71.03746,84.45685H57.89278a1.28712,1.28712,0,0,1,0-2.57423H71.03746a1.28712,1.28712,0,0,1,0,2.57423Z" fill="#024b54"/>
  <circle cx="71.03777" cy="59.22435" r="15.32735" fill="none" stroke="#024b54" stroke-linecap="round" stroke-linejoin="round" stroke-width="3"/>
  <line x1="81.87584" y1="70.06243" x2="95.74468" y2="83.93127" fill="none" stroke="#024b54" stroke-linecap="round" stroke-linejoin="round" stroke-width="3"/>
  <path d="M62.04641,55.45911A9.7482,9.7482,0,0,1,71.03777,49.479" fill="none" stroke="#024b54" stroke-linecap="round" stroke-linejoin="round" stroke-width="3"/>
  <circle cx="33.48308" cy="82.75265" r="4.69776" fill="#024b54"/>
  <path d="M5,97.80963H105" fill="none" stroke="#024b54" stroke-linecap="round" stroke-linejoin="round" stroke-width="3"/>
</svg>
