<svg width="110" height="110" viewBox="0 0 110 110" fill="none" xmlns="http://www.w3.org/2000/svg">
<path d="M56 39H99V89H56.1903" stroke="#024B54" stroke-width="3" stroke-miterlimit="10" stroke-linecap="round" stroke-linejoin="round"/>
<path d="M55 14H93.853L104.803 36.1344L105 39H55" fill="#024B54"/>
<path d="M55 14H93.853L104.803 36.1344L105 39H55" stroke="#024B54" stroke-width="3" stroke-miterlimit="10" stroke-linecap="round" stroke-linejoin="round"/>
<path d="M71.7 47.4H62.9V58.4H71.7V47.4Z" stroke="#024B54" stroke-width="3" stroke-miterlimit="10" stroke-linecap="round" stroke-linejoin="round"/>
<path d="M89.7 47.4H80.9V58.4H89.7V47.4Z" stroke="#024B54" stroke-width="3" stroke-miterlimit="10" stroke-linecap="round" stroke-linejoin="round"/>
<path d="M71.7 66.4H62.9V77.4H71.7V66.4Z" stroke="#024B54" stroke-width="3" stroke-miterlimit="10" stroke-linecap="round" stroke-linejoin="round"/>
<path d="M89.7 66.4H80.9V77.4H89.7V66.4Z" stroke="#024B54" stroke-width="3" stroke-miterlimit="10" stroke-linecap="round" stroke-linejoin="round"/>
<path d="M56 39.1004L37.0556 39L12 39.1004V89H55.7963" stroke="#024B54" stroke-width="3" stroke-miterlimit="10" stroke-linecap="round" stroke-linejoin="round"/>
<path d="M6 36.2112L17.3447 14.2988L56 14V39H6V36.2112Z" fill="#024B54" stroke="#024B54" stroke-width="3" stroke-miterlimit="10" stroke-linecap="round" stroke-linejoin="round"/>
<path d="M30.3 47.4H21.5V58.4H30.3V47.4Z" fill="#024B54" stroke="#024B54" stroke-width="3" stroke-miterlimit="10" stroke-linecap="round" stroke-linejoin="round"/>
<path d="M49.3 47.4H40.5V58.4H49.3V47.4Z" fill="#024B54" stroke="#024B54" stroke-width="3" stroke-miterlimit="10" stroke-linecap="round" stroke-linejoin="round"/>
<path d="M30.3 66.4H21.5V77.4H30.3V66.4Z" fill="#024B54" stroke="#024B54" stroke-width="3" stroke-miterlimit="10" stroke-linecap="round" stroke-linejoin="round"/>
<path d="M49.3 66.4H40.5V77.4H49.3V66.4Z" fill="#024B54" stroke="#024B54" stroke-width="3" stroke-miterlimit="10" stroke-linecap="round" stroke-linejoin="round"/>
<path d="M7.09998 97.6H104.1" stroke="#024B54" stroke-width="3" stroke-miterlimit="10" stroke-linecap="round" stroke-linejoin="round"/>
<path d="M56 45L56 48" stroke="#024B54" stroke-width="3" stroke-linecap="round" stroke-linejoin="round"/>
<path d="M56 54L56 57" stroke="#024B54" stroke-width="3" stroke-linecap="round" stroke-linejoin="round"/>
<path d="M56 63L56 66" stroke="#024B54" stroke-width="3" stroke-linecap="round" stroke-linejoin="round"/>
<path d="M56 72L56 75" stroke="#024B54" stroke-width="3" stroke-linecap="round" stroke-linejoin="round"/>
<path d="M56 81L56 84" stroke="#024B54" stroke-width="3" stroke-linecap="round" stroke-linejoin="round"/>
</svg>
