<svg id="Layer_1" data-name="Layer 1" xmlns="http://www.w3.org/2000/svg" width="110" height="110" viewBox="0 0 110 110">
  <path d="M54.94383,35.83894a18.89811,18.89811,0,0,0,2.68,16.93.20918.20918,0,0,1-.06-.04l.13,1.17005-10.47,7.61-3.86-.31-.89,3.76-4.09,2.96-3.85-.3-.9,3.75-7.22,5.26-7.36-.73,1.35-7.53,32.02-23.27a14.83316,14.83316,0,0,1,5.55-16,14.47648,14.47648,0,0,1,2.15-1.3A18.74569,18.74569,0,0,0,54.94383,35.83894Z" fill="#024b54"/>
  <path d="M72.25226,56.476l.78956.86414L69.00866,69.65324l-3.304,2.00589,1.477,3.57189L65.61052,80.0276l-3.304,2.00584,1.477,3.5719-2.78205,8.49347-6.68241,3.02975L51.299,90.92074l12.32183-37.618A14.80322,14.80322,0,1,1,72.25226,56.476Z" fill="none" stroke="#024b54" stroke-linecap="round" stroke-linejoin="round" stroke-width="3"/>
  <circle cx="72.79936" cy="41.69366" r="5.13568" fill="none" stroke="#024b54" stroke-linecap="round" stroke-linejoin="round" stroke-width="3"/>
  <line x1="67.06236" y1="55.6124" x2="57.87233" y2="83.66912" fill="none" stroke="#024b54" stroke-linecap="round" stroke-linejoin="round" stroke-width="3"/>
  <path d="M48.45383,36.55894a17.45169,17.45169,0,1,1,19.39,6.48" fill="none" stroke="#024b54" stroke-linecap="round" stroke-linejoin="round" stroke-width="3"/>
</svg>
