<svg width="110" height="110" viewBox="0 0 110 110" fill="none" xmlns="http://www.w3.org/2000/svg">
<g clip-path="url(#clip0)">
<path d="M5.5 98.7002H105.5" stroke="#024B54" stroke-width="3" stroke-miterlimit="10" stroke-linecap="round" stroke-linejoin="round"/>
<path d="M61 50.1996C63.2 44.0996 60.1 37.2996 53.9 35.0996C47.8 32.7996 41 35.9996 38.8 42.0996C37 46.9996 38.7 52.2996 42.5 55.3996C41.3 58.5996 35.1 75.2996 33.4 79.9996C31.5 85.2996 35.5 84.8996 35.8 84.9996C36.1 85.0996 41.4 80.1996 41.4 80.1996L41.5 77.1996L44.1 73.6996L44.3 69.7996C44.3 69.7996 47.8 60.0996 48.9 57.7996C54.1 58.2996 59.1 55.2996 61 50.1996Z" fill="#024B54" stroke="#024B54" stroke-width="3" stroke-miterlimit="10" stroke-linecap="round" stroke-linejoin="round"/>
<path d="M50.5 48.1002C52.5434 48.1002 54.2 46.4436 54.2 44.4002C54.2 42.3567 52.5434 40.7002 50.5 40.7002C48.4565 40.7002 46.8 42.3567 46.8 44.4002C46.8 46.4436 48.4565 48.1002 50.5 48.1002Z" stroke="#024B54" stroke-width="3" stroke-miterlimit="10" stroke-linecap="round" stroke-linejoin="round"/>
<path d="M70.8 42.4003C69 36.1003 62.5 32.5003 56.2 34.3003C49.9 36.1003 46.3 42.6003 48.1 48.9003C49.5 53.9003 54 57.2003 58.9 57.4003C59.8 60.7003 64.6 77.9003 66 82.7003C67.5 88.1003 70.5 85.4003 70.9 85.3003C71.2 85.2003 72.7 78.1003 72.7 78.1003L71 75.8003L71.1 71.5003L69 68.2003C69 68.2003 66.2 58.3003 65.7 55.8003C70 53.0003 72.3 47.6003 70.8 42.4003Z" fill="white" stroke="#024B54" stroke-width="3" stroke-miterlimit="10" stroke-linecap="round" stroke-linejoin="round"/>
<path d="M59 47.6002C61.0434 47.6002 62.7 45.9436 62.7 43.9002C62.7 41.8567 61.0434 40.2002 59 40.2002C56.9565 40.2002 55.3 41.8567 55.3 43.9002C55.3 45.9436 56.9565 47.6002 59 47.6002Z" stroke="#024B54" stroke-width="3" stroke-miterlimit="10" stroke-linecap="round" stroke-linejoin="round"/>
<path d="M46.5 27.5C46.5 24.3687 47.4188 21.3062 49.1426 18.692C50.8664 16.0779 53.3194 14.027 56.1975 12.7936C59.0757 11.5601 62.2525 11.1983 65.3343 11.753C68.4161 12.3077 71.2674 13.7545 73.5348 15.9141C75.8023 18.0737 77.3862 20.8512 78.0903 23.9023C78.7944 26.9535 78.5877 30.1441 77.4958 33.0789C76.404 36.0137 74.475 38.5637 71.9479 40.4127C69.4208 42.2617 66.4067 43.3286 63.279 43.481" stroke="#024B54" stroke-width="3" stroke-linecap="round" stroke-linejoin="round"/>
</g>
<defs>
<clipPath id="clip0">
<rect width="103" height="90.2" fill="white" transform="translate(4 10)"/>
</clipPath>
</defs>
</svg>
